{"accessors":[{"bufferView":2,"componentType":5126,"count":288,"max":[2.9267899990081787,1.9481300115585327,17.629169464111328],"min":[-2.776060104370117,-2.575239896774292,-17.563289642333984],"type":"VEC3","byteOffset":0},{"bufferView":2,"byteOffset":3456,"componentType":5126,"count":288,"max":[0.9905067086219788,0.996309757232666,0.9998408555984497],"min":[-0.9987148642539978,-0.991797685623169,-0.9688236713409424],"type":"VEC3"},{"bufferView":3,"componentType":5126,"count":288,"max":[0.9879608750343323,0.9983749985694885,0.9945777654647827,1],"min":[-0.9910213351249695,-0.9985052943229675,-0.9682188034057617,-1],"type":"VEC4","byteOffset":0},{"bufferView":1,"componentType":5126,"count":288,"max":[0.9913600087165833,0.9998700022697449],"min":[0.00013000000035390258,0.00013000000035390258],"type":"VEC2","byteOffset":0},{"bufferView":0,"componentType":5125,"count":1176,"max":[287],"min":[0],"type":"SCALAR","byteOffset":0}],"asset":{"extras":{"author":"tsulodia (https://sketchfab.com/tsulodia)","license":"CC-BY-4.0 (http://creativecommons.org/licenses/by/4.0/)","source":"https://sketchfab.com/models/decf197fcdc54d2db7d400a8a7eea3f1","title":"Sausage"},"generator":"Sketchfab-3.18.2","version":"2.0"},"bufferViews":[{"buffer":0,"byteLength":4704,"byteOffset":0,"name":"floatBufferViews","target":34963},{"buffer":0,"byteLength":2304,"byteOffset":4704,"byteStride":8,"name":"floatBufferViews","target":34962},{"buffer":0,"byteLength":6912,"byteOffset":7008,"byteStride":12,"name":"floatBufferViews","target":34962},{"buffer":0,"byteLength":4608,"byteOffset":13920,"byteStride":16,"name":"floatBufferViews","target":34962},{"buffer":0,"byteOffset":18528,"byteLength":56836}],"buffers":[{"byteLength":75364,"uri":"data:application/octet-stream;base64,"}],"images":[{"bufferView":4,"mimeType":"image/png"}],"materials":[{"doubleSided":true,"emissiveFactor":[0,0,0],"name":"Material","pbrMetallicRoughness":{"baseColorFactor":[1,1,1,1],"baseColorTexture":{"index":0,"texCoord":0},"metallicFactor":0,"roughnessFactor":0.6},"alphaMode":"OPAQUE"}],"meshes":[{"name":"Cylinder.003_0","primitives":[{"attributes":{"NORMAL":1,"POSITION":0,"TANGENT":2,"TEXCOORD_0":3},"indices":4,"material":0,"mode":4}]}],"nodes":[{"children":[1],"name":"RootNode (gltf orientation matrix)","rotation":[-0.7071067811865475,0,0,0.7071067811865476],"translation":[0,0,0],"scale":[1,1,1]},{"children":[2],"name":"RootNode (model correction matrix)"},{"children":[3,5],"name":"Root"},{"children":[4],"matrix":[-0.29086000000000006,0.9551700000000001,-0.05519000000000001,0,-0.7711,-0.19988000000000003,0.6045200000000001,0,0.5663900000000001,0.21839000000000003,0.7946700000000001,0,4.076250000000001,1.00545,5.903860000000001,1],"name":"Lamp"},{"name":"Lamp"},{"children":[6],"matrix":[0.8997000000000002,-0.43650000000000005,0,0,0.43650000000000005,0.8997000000000002,0,0,0,0,1,0,0,0,0,1],"name":"Cylinder.003"},{"mesh":0,"name":"Cylinder.003_0"}],"samplers":[{"magFilter":9729,"minFilter":9987,"wrapS":10497,"wrapT":10497}],"scene":0,"scenes":[{"name":"OSG_Scene","nodes":[0]}],"textures":[{"sampler":0,"source":0}]}
